# xmcd CD database file
#
# Track frame offsets:
#	150
#	21336
#	39038
#	58361
#	80470
#	97949
#	118034
#	137657
#	159872
#	178290
#
# Disc length: 2583 seconds
#
# Revision: 1
# Processed by: cddbd v1.5.1PL0 Copyright (c) Steve Scherf et al.
# Submitted via: jetAudio 5
#
DISCID=7b0a150a
DTITLE=Era - Era Disc Vol. 2
DYEAR=2003
DGENRE=New Age
TTITLE0=Omen Sore
TTITLE1=Divano
TTITLE2=Debore Amante
TTITLE3=Sentence
TTITLE4=Don't U
TTITLE5=Infanati
TTITLE6=Madona
TTITLE7=Hymne
TTITLE8=Misere Mani
TTITLE9=In Pine
EXTD=YEAR: 2003
EXTT0=
EXTT1=
EXTT2=
EXTT3=
EXTT4=
EXTT5=
EXTT6=
EXTT7=
EXTT8=
EXTT9=
PLAYORDER=
